<svg width="444" height="444" viewBox="0 0 444 444" fill="none" xmlns="http://www.w3.org/2000/svg">
<rect width="444" height="444" rx="83.25" fill="black"/>
<path d="M41.3047 156.402C41.3047 148.088 48.0451 141.347 56.3597 141.347H117.817C122.61 141.347 127.116 139.065 129.952 135.202L159.27 95.2703C162.106 91.407 166.612 89.125 171.405 89.125H222.122H272.839C277.632 89.125 282.139 91.407 284.975 95.2703L314.292 135.202C317.129 139.065 321.635 141.347 326.428 141.347H387.885C396.199 141.347 402.94 148.088 402.94 156.402V338.945C402.94 347.26 396.199 354 387.885 354H56.3598C48.0451 354 41.3047 347.26 41.3047 338.945V156.402Z" fill="white"/>
<mask id="mask0_3467_20901" style="mask-type:alpha" maskUnits="userSpaceOnUse" x="102" y="113" width="242" height="242">
<rect x="102" y="113" width="242" height="242" fill="#D9D9D9"/>
</mask>
<g mask="url(#mask0_3467_20901)">
<path d="M223.001 334.835C209.221 334.835 196.196 332.188 183.928 326.894C171.66 321.6 160.947 314.374 151.788 305.215C142.629 296.056 135.402 285.342 130.109 273.074C124.815 260.806 122.168 247.782 122.168 234.001C122.168 220.053 124.815 206.986 130.109 194.802C135.402 182.618 142.629 171.947 151.788 162.788C160.947 153.629 171.66 146.402 183.928 141.109C196.196 135.815 209.221 133.168 223.001 133.168C236.95 133.168 250.016 135.815 262.2 141.109C274.384 146.402 285.056 153.629 294.215 162.788C303.374 171.947 310.6 182.618 315.894 194.802C321.188 206.986 323.835 220.053 323.835 234.001C323.835 247.782 321.188 260.806 315.894 273.074C310.6 285.342 303.374 296.056 294.215 305.215C285.056 314.374 274.384 321.6 262.2 326.894C250.016 332.188 236.95 334.835 223.001 334.835ZM223.001 314.164C227.371 308.114 231.152 301.812 234.345 295.258C237.538 288.703 240.143 281.729 242.16 274.335H203.843C205.86 281.729 208.465 288.703 211.658 295.258C214.851 301.812 218.632 308.114 223.001 314.164ZM196.785 310.13C193.76 304.585 191.113 298.829 188.844 292.863C186.575 286.897 184.685 280.721 183.172 274.335H153.426C158.3 282.737 164.392 290.048 171.702 296.266C179.013 302.484 187.374 307.105 196.785 310.13ZM249.218 310.13C258.629 307.105 266.99 302.484 274.3 296.266C281.611 290.048 287.703 282.737 292.576 274.335H262.83C261.318 280.721 259.427 286.897 257.159 292.863C254.89 298.829 252.243 304.585 249.218 310.13ZM144.855 254.168H179.139C178.635 250.807 178.257 247.488 178.004 244.211C177.752 240.934 177.626 237.53 177.626 234.001C177.626 230.472 177.752 227.069 178.004 223.792C178.257 220.515 178.635 217.196 179.139 213.835H144.855C144.015 217.196 143.385 220.515 142.965 223.792C142.545 227.069 142.335 230.472 142.335 234.001C142.335 237.53 142.545 240.934 142.965 244.211C143.385 247.488 144.015 250.807 144.855 254.168ZM199.305 254.168H246.697C247.201 250.807 247.579 247.488 247.832 244.211C248.084 240.934 248.21 237.53 248.21 234.001C248.21 230.472 248.084 227.069 247.832 223.792C247.579 220.515 247.201 217.196 246.697 213.835H199.305C198.801 217.196 198.423 220.515 198.171 223.792C197.919 227.069 197.793 230.472 197.793 234.001C197.793 237.53 197.919 240.934 198.171 244.211C198.423 247.488 198.801 250.807 199.305 254.168ZM266.864 254.168H301.147C301.987 250.807 302.618 247.488 303.038 244.211C303.458 240.934 303.668 237.53 303.668 234.001C303.668 230.472 303.458 227.069 303.038 223.792C302.618 220.515 301.987 217.196 301.147 213.835H266.864C267.368 217.196 267.746 220.515 267.998 223.792C268.25 227.069 268.376 230.472 268.376 234.001C268.376 237.53 268.25 240.934 267.998 244.211C267.746 247.488 267.368 250.807 266.864 254.168ZM262.83 193.668H292.576C287.703 185.265 281.611 177.955 274.3 171.737C266.99 165.519 258.629 160.897 249.218 157.872C252.243 163.418 254.89 169.174 257.159 175.14C259.427 181.106 261.318 187.282 262.83 193.668ZM203.843 193.668H242.16C240.143 186.274 237.538 179.299 234.345 172.745C231.152 166.191 227.371 159.889 223.001 153.839C218.632 159.889 214.851 166.191 211.658 172.745C208.465 179.299 205.86 186.274 203.843 193.668ZM153.426 193.668H183.172C184.685 187.282 186.575 181.106 188.844 175.14C191.113 169.174 193.76 163.418 196.785 157.872C187.374 160.897 179.013 165.519 171.702 171.737C164.392 177.955 158.3 185.265 153.426 193.668Z" fill="black"/>
</g>
</svg>
